<svg width="24" height="24" viewBox="0 0 24 24" fill="none" xmlns="http://www.w3.org/2000/svg">
<path d="M20 12.38V12.38C20 10.12 21.06 8.1 22.78 6.84C22.9 6.74 23 6.6 23 6.45V4.34C23 4.1 22.84 3.9 22.65 3.84L20.44 3.16C20.17 3.08 19.89 3.14 19.69 3.32L18.44 4.54C16.89 3.58 15.06 3 13.12 3H12.88C11.16 3 9.5 3.44 8.05 4.25L4.5 1.25L3.3 2.45L6.91 6.06C5.1 7.26 4 9.21 4 11.45V11.45C4 12.56 4.3 13.62 4.84 14.53L3.43 15.94C3.24 16.13 3.24 16.44 3.43 16.63L4.93 18.13C5.12 18.32 5.43 18.32 5.62 18.13L7.24 16.51C8.24 17.18 9.4 17.62 10.63 17.85C10.63 17.85 10.63 18.78 10.63 18.78C10.63 19.33 11.08 19.78 11.63 19.78H16.38C16.93 19.78 17.38 19.33 17.38 18.78V17.85C18.52 17.65 19.58 17.14 20.5 16.48L22.35 18.33C22.54 18.52 22.85 18.52 23.04 18.33L24.54 16.83C24.73 16.64 24.73 16.33 24.54 16.14L20 12.38ZM18 13.5C17.17 13.5 16.5 12.83 16.5 12C16.5 11.17 17.17 10.5 18 10.5C18.83 10.5 19.5 11.17 19.5 12C19.5 12.83 18.83 13.5 18 13.5Z" fill="#000000"/>
<path d="M1 21.78H20C20.55 21.78 21 21.33 21 20.78V19.78H2C1.45 19.78 1 20.23 1 20.78V21.78Z" fill="#000000"/>
</svg>
