<svg width="24" height="24" viewBox="0 0 24 24" fill="none" xmlns="http://www.w3.org/2000/svg">
<path d="M20 6H4C2.9 6 2 6.9 2 8V16C2 17.1 2.9 18 4 18H20C21.1 18 22 17.1 22 16V8C22 6.9 21.1 6 20 6ZM20 16H4V8H20V16Z" fill="#4285F4"/>
<path d="M7 13.5C8.38 13.5 9.5 12.38 9.5 11C9.5 9.62 8.38 8.5 7 8.5C5.62 8.5 4.5 9.62 4.5 11C4.5 12.38 5.62 13.5 7 13.5ZM7 10C7.55 10 8 10.45 8 11C8 11.55 7.55 12 7 12C6.45 12 6 11.55 6 11C6 10.45 6.45 10 7 10Z" fill="#EA4335"/>
<path d="M17 10H11V11.5H17V10Z" fill="#FBBC05"/>
<path d="M17 12.5H11V14H17V12.5Z" fill="#34A853"/>
</svg>
